<mxfile host="Electron" modified="2024-07-20T12:16:17.370Z" agent="Mozilla/5.0 (Macintosh; Intel Mac OS X 10_15_7) AppleWebKit/537.36 (KHTML, like Gecko) draw.io/24.6.4 Chrome/124.0.6367.207 Electron/30.0.6 Safari/537.36" etag="mxnE6Zpn8VgyubYV7PTh" version="24.6.4" type="device">
  <diagram name="第 1 页" id="I_FVQoFH6_T2G0DIOcU2">
    <mxGraphModel dx="954" dy="727" grid="1" gridSize="10" guides="1" tooltips="1" connect="1" arrows="1" fold="1" page="1" pageScale="1" pageWidth="827" pageHeight="1169" math="0" shadow="0">
      <root>
        <mxCell id="0" />
        <mxCell id="1" parent="0" />
        <mxCell id="JaO853jV0v3IvnSuE1wT-1" value="1" style="rounded=0;whiteSpace=wrap;html=1;" vertex="1" parent="1">
          <mxGeometry x="280" y="140" width="80" height="60" as="geometry" />
        </mxCell>
        <mxCell id="JaO853jV0v3IvnSuE1wT-2" value="10" style="rounded=0;whiteSpace=wrap;html=1;" vertex="1" parent="1">
          <mxGeometry x="520" y="140" width="80" height="60" as="geometry" />
        </mxCell>
        <mxCell id="JaO853jV0v3IvnSuE1wT-3" value="7" style="rounded=0;whiteSpace=wrap;html=1;" vertex="1" parent="1">
          <mxGeometry x="440" y="140" width="80" height="60" as="geometry" />
        </mxCell>
        <mxCell id="JaO853jV0v3IvnSuE1wT-4" value="2" style="rounded=0;whiteSpace=wrap;html=1;" vertex="1" parent="1">
          <mxGeometry x="360" y="140" width="80" height="60" as="geometry" />
        </mxCell>
        <mxCell id="JaO853jV0v3IvnSuE1wT-6" value="胃口 g，if 控制" style="text;html=1;align=center;verticalAlign=middle;resizable=0;points=[];autosize=1;strokeColor=none;fillColor=none;" vertex="1" parent="1">
          <mxGeometry x="130" y="155" width="100" height="30" as="geometry" />
        </mxCell>
        <mxCell id="JaO853jV0v3IvnSuE1wT-7" value="1" style="rounded=0;whiteSpace=wrap;html=1;" vertex="1" parent="1">
          <mxGeometry x="280" y="280" width="80" height="60" as="geometry" />
        </mxCell>
        <mxCell id="JaO853jV0v3IvnSuE1wT-8" value="9" style="rounded=0;whiteSpace=wrap;html=1;" vertex="1" parent="1">
          <mxGeometry x="520" y="280" width="80" height="60" as="geometry" />
        </mxCell>
        <mxCell id="JaO853jV0v3IvnSuE1wT-9" value="5" style="rounded=0;whiteSpace=wrap;html=1;" vertex="1" parent="1">
          <mxGeometry x="440" y="280" width="80" height="60" as="geometry" />
        </mxCell>
        <mxCell id="JaO853jV0v3IvnSuE1wT-10" value="3" style="rounded=0;whiteSpace=wrap;html=1;" vertex="1" parent="1">
          <mxGeometry x="360" y="280" width="80" height="60" as="geometry" />
        </mxCell>
        <mxCell id="JaO853jV0v3IvnSuE1wT-11" value="饼干 s，for 控制" style="text;html=1;align=center;verticalAlign=middle;resizable=0;points=[];autosize=1;strokeColor=none;fillColor=none;" vertex="1" parent="1">
          <mxGeometry x="125" y="295" width="110" height="30" as="geometry" />
        </mxCell>
        <mxCell id="JaO853jV0v3IvnSuE1wT-12" value="" style="endArrow=classic;html=1;rounded=0;" edge="1" parent="1">
          <mxGeometry width="50" height="50" relative="1" as="geometry">
            <mxPoint x="559.5" y="80" as="sourcePoint" />
            <mxPoint x="559.5" y="120" as="targetPoint" />
          </mxGeometry>
        </mxCell>
        <mxCell id="JaO853jV0v3IvnSuE1wT-14" value="index" style="text;html=1;align=center;verticalAlign=middle;resizable=0;points=[];autosize=1;strokeColor=none;fillColor=none;" vertex="1" parent="1">
          <mxGeometry x="535" y="50" width="50" height="30" as="geometry" />
        </mxCell>
        <mxCell id="JaO853jV0v3IvnSuE1wT-15" value="" style="endArrow=classic;html=1;rounded=0;" edge="1" parent="1">
          <mxGeometry width="50" height="50" relative="1" as="geometry">
            <mxPoint x="560" y="400" as="sourcePoint" />
            <mxPoint x="560" y="360" as="targetPoint" />
          </mxGeometry>
        </mxCell>
        <mxCell id="JaO853jV0v3IvnSuE1wT-17" value="i" style="text;html=1;align=center;verticalAlign=middle;resizable=0;points=[];autosize=1;strokeColor=none;fillColor=none;" vertex="1" parent="1">
          <mxGeometry x="545" y="400" width="30" height="30" as="geometry" />
        </mxCell>
        <mxCell id="JaO853jV0v3IvnSuE1wT-19" value="" style="endArrow=classic;html=1;rounded=0;entryX=0.5;entryY=1;entryDx=0;entryDy=0;" edge="1" parent="1" target="JaO853jV0v3IvnSuE1wT-2">
          <mxGeometry width="50" height="50" relative="1" as="geometry">
            <mxPoint x="320" y="280" as="sourcePoint" />
            <mxPoint x="370" y="230" as="targetPoint" />
          </mxGeometry>
        </mxCell>
        <mxCell id="JaO853jV0v3IvnSuE1wT-20" value="不匹配" style="edgeLabel;html=1;align=center;verticalAlign=middle;resizable=0;points=[];" vertex="1" connectable="0" parent="JaO853jV0v3IvnSuE1wT-19">
          <mxGeometry relative="1" as="geometry">
            <mxPoint as="offset" />
          </mxGeometry>
        </mxCell>
        <mxCell id="JaO853jV0v3IvnSuE1wT-21" value="" style="endArrow=classic;html=1;rounded=0;entryX=0.5;entryY=1;entryDx=0;entryDy=0;exitX=0.5;exitY=0;exitDx=0;exitDy=0;" edge="1" parent="1" source="JaO853jV0v3IvnSuE1wT-10" target="JaO853jV0v3IvnSuE1wT-2">
          <mxGeometry width="50" height="50" relative="1" as="geometry">
            <mxPoint x="330" y="290" as="sourcePoint" />
            <mxPoint x="570" y="210" as="targetPoint" />
          </mxGeometry>
        </mxCell>
        <mxCell id="JaO853jV0v3IvnSuE1wT-22" value="不匹配" style="edgeLabel;html=1;align=center;verticalAlign=middle;resizable=0;points=[];" vertex="1" connectable="0" parent="JaO853jV0v3IvnSuE1wT-21">
          <mxGeometry relative="1" as="geometry">
            <mxPoint as="offset" />
          </mxGeometry>
        </mxCell>
        <mxCell id="JaO853jV0v3IvnSuE1wT-23" value="" style="endArrow=classic;html=1;rounded=0;exitX=0.5;exitY=0;exitDx=0;exitDy=0;" edge="1" parent="1" source="JaO853jV0v3IvnSuE1wT-9">
          <mxGeometry width="50" height="50" relative="1" as="geometry">
            <mxPoint x="410" y="290" as="sourcePoint" />
            <mxPoint x="560" y="200" as="targetPoint" />
          </mxGeometry>
        </mxCell>
        <mxCell id="JaO853jV0v3IvnSuE1wT-24" value="不匹配" style="edgeLabel;html=1;align=center;verticalAlign=middle;resizable=0;points=[];" vertex="1" connectable="0" parent="JaO853jV0v3IvnSuE1wT-23">
          <mxGeometry relative="1" as="geometry">
            <mxPoint as="offset" />
          </mxGeometry>
        </mxCell>
        <mxCell id="JaO853jV0v3IvnSuE1wT-25" value="" style="endArrow=classic;html=1;rounded=0;entryX=0.5;entryY=1;entryDx=0;entryDy=0;exitX=0.5;exitY=0;exitDx=0;exitDy=0;" edge="1" parent="1" source="JaO853jV0v3IvnSuE1wT-8" target="JaO853jV0v3IvnSuE1wT-2">
          <mxGeometry width="50" height="50" relative="1" as="geometry">
            <mxPoint x="560" y="270" as="sourcePoint" />
            <mxPoint x="570" y="210" as="targetPoint" />
          </mxGeometry>
        </mxCell>
        <mxCell id="JaO853jV0v3IvnSuE1wT-26" value="不匹配" style="edgeLabel;html=1;align=center;verticalAlign=middle;resizable=0;points=[];" vertex="1" connectable="0" parent="JaO853jV0v3IvnSuE1wT-25">
          <mxGeometry relative="1" as="geometry">
            <mxPoint as="offset" />
          </mxGeometry>
        </mxCell>
      </root>
    </mxGraphModel>
  </diagram>
</mxfile>
